<?xml version="1.0" encoding="UTF-8" standalone="no"?>
<!-- Created with Inkscape (http://www.inkscape.org/) -->

<svg
   width="210mm"
   height="297mm"
   viewBox="0 0 210 297"
   version="1.1"
   id="svg1"
   xml:space="preserve"
   xmlns="http://www.w3.org/2000/svg"
   xmlns:svg="http://www.w3.org/2000/svg"><defs
     id="defs1" /><g
     id="layer1"><path
       style="fill:#000000"
       d="m 29.075494,275.8867 c -1.677783,-0.42864 -3.7249,-1.72635 -4.913139,-3.11454 -2.07729,-2.42685 -2.752831,-5.27241 -2.108943,-8.88344 1.250269,-7.0117 8.401754,-19.49127 17.246213,-30.09521 6.985664,-8.37535 21.097322,-22.95472 30.428011,-31.43649 2.255946,-2.05069 7.086804,-6.58437 10.735239,-10.07484 3.648435,-3.49047 8.824644,-8.33887 11.502686,-10.77423 2.678042,-2.43535 4.833767,-4.46331 4.790501,-4.50658 -0.04327,-0.0433 -2.000391,0.051 -4.349165,0.20949 -5.304145,0.3579 -11.511305,0.13529 -14.845663,-0.53241 -9.453589,-1.89306 -18.455792,-6.06434 -25.69497,-11.90607 -2.235098,-1.80363 -7.493428,-7.15458 -9.659335,-9.82947 -8.341304,-10.3015 -12.413271,-23.29269 -12.882581,-41.10053 -0.348667,-13.23006 2.066441,-25.409938 7.47032,-37.674345 6.111517,-13.87043 17.441305,-27.558464 30.570364,-36.933448 14.179566,-10.125114 29.893662,-14.984566 45.005418,-13.917549 13.14117,0.927878 21.78067,5.145497 31.80306,15.525567 8.13635,8.426724 13.15967,18.94837 15.56195,32.59542 2.66641,15.147509 2.63002,26.600405 -0.13011,40.950155 -0.77796,4.04457 -2.92511,12.6018 -3.9794,15.85948 -0.41642,1.28669 -0.71578,2.38077 -0.66526,2.4313 0.0505,0.0505 1.12329,-0.54306 2.38392,-1.31908 7.18996,-4.426 18.44807,-10.31011 22.02154,-11.50969 5.87987,-1.9738 11.00378,-1.17456 14.42903,2.25069 2.39111,2.39111 3.55323,5.4252 3.35954,8.77114 -0.10068,1.73916 -0.2866,2.40529 -1.20626,4.32193 -1.40069,2.91911 -1.7623,3.32731 -5.89707,6.65682 -7.17967,5.78141 -16.15141,11.00644 -22.57512,13.14744 -1.86485,0.62155 -2.54144,0.70924 -5.6296,0.72965 l -3.51001,0.0232 -4.42002,2.76735 c -2.43101,1.52205 -6.51293,4.20794 -9.07093,5.96866 l -4.65091,3.2013 -3.24155,5.98002 c -6.2218,11.478 -15.23118,26.00388 -21.60888,34.84013 -10.85678,15.04198 -17.371378,22.85484 -28.37239,34.02659 -8.982707,9.12212 -12.15793,11.80713 -21.679267,18.33225 -7.579888,5.19462 -15.381813,9.6771 -21.096478,12.12066 -5.679288,2.42843 -12.12487,3.66407 -15.120741,2.89868 z m 8.564361,-15.15371 c 6.417817,-3.24462 15.167267,-9.7261 21.896437,-16.22062 1.859007,-1.79418 4.418832,-4.12466 5.6885,-5.17885 3.779141,-3.13777 11.941836,-11.63931 17.992615,-18.73953 6.332405,-7.43069 22.446313,-28.44494 22.087193,-28.80406 -0.0489,-0.0489 -2.76181,1.86971 -6.028589,4.26368 -14.172282,10.3858 -17.888106,13.47392 -29.944973,24.88645 -14.956469,14.15718 -24.062187,24.30702 -28.967083,32.28862 -1.505363,2.44964 -4.464057,8.19003 -4.221278,8.19003 0.07745,0 0.751179,-0.30857 1.497178,-0.68572 z M 102.4932,163.39214 c 2.95717,-0.3708 4.11212,-0.84379 5.67911,-2.32578 0.74664,-0.70614 1.69203,-1.3576 2.10085,-1.44767 0.40883,-0.0901 0.898,-0.21207 1.08705,-0.27109 0.59172,-0.18474 2.52403,0.42373 3.2931,1.03696 l 0.73614,0.58698 5.74634,-4.44161 c 3.16049,-2.44289 6.47369,-4.96812 7.36267,-5.61162 0.88897,-0.6435 1.69329,-1.40401 1.78737,-1.69001 0.0941,-0.286 0.92529,-2.207 1.84714,-4.26889 3.55466,-7.95064 5.90201,-14.21232 9.21632,-24.58504 4.90842,-15.36178 6.29448,-23.253952 6.27967,-35.756304 -0.007,-5.827519 -0.095,-7.411254 -0.57159,-10.270037 -1.82713,-10.96091 -5.89822,-19.849504 -11.87944,-25.9369 -9.06339,-9.224287 -17.38584,-11.81242 -31.96148,-9.939447 -13.384912,1.719965 -27.261976,8.982663 -37.842823,19.805414 -10.91934,11.168983 -17.272798,22.555781 -20.233526,36.262943 -1.186815,5.494541 -1.604598,12.508171 -1.08368,18.192511 0.390296,4.25897 1.600582,11.63309 2.511727,15.30364 3.901217,15.71605 14.369778,27.67947 28.958203,33.09329 3.263557,1.21112 5.962257,1.94614 8.19003,2.23066 2.569097,0.32811 16.229645,0.35139 18.776819,0.032 z"
       id="path1" /></g></svg>
