<svg width="698" height="432" viewBox="0 0 698 432" fill="none" xmlns="http://www.w3.org/2000/svg">
    <path
        d="M264.899 430.703C260.281 429.582 257.132 426.873 255.096 422.269C252.907 417.321 254.371 409.976 259.147 401.944C260.182 400.205 264.081 395.607 267.813 391.728L274.597 384.674L272.746 382.798C270.3 380.32 268.927 376.138 269.318 372.354C269.781 367.866 272.616 360.097 277.45 350.068C282.819 338.931 286.615 332.219 299.415 311.224C304.867 302.281 314.755 285.881 321.388 274.78C353.891 220.381 367.572 200.809 405.472 154.482C413.857 144.234 415.053 142.462 423.823 127.289C438.719 101.519 443.925 92.8764 458.932 69.0068C471.939 48.3191 482.658 30.2305 482.15 29.8251C481.96 29.6728 460 38.8951 439.047 47.9269C425.172 53.9076 413.045 57.6703 399.798 60.1048C392.041 61.5305 374.759 61.5556 371.107 60.1486C368.037 58.9638 364.207 55.0787 363.662 52.5955C362.631 47.9024 366.524 42.866 374.326 38.7997C376.745 37.5389 377.423 37.4066 378.872 37.9116C380.972 38.6439 382.081 40.593 381.735 42.9471L381.474 44.7306L385.169 44.349C400.118 42.8053 417.174 37.416 438.591 27.4694C457.592 18.6445 482.721 9.25101 487.714 9.10644C491.745 8.98958 495.402 10.2825 497.9 12.7064C501.088 15.7998 502 17.9024 502.009 22.1755C502.024 28.9548 496.581 40.7562 482.161 65.2244C478.844 70.8523 476.257 75.4569 476.41 75.4569C476.565 75.4569 479.998 72.4923 484.042 68.8689C505.512 49.6306 510.041 45.9979 524.552 36.3708C545.177 22.6873 554.44 18.4718 565.268 17.8406C577.539 17.1253 585.825 22.3256 590.373 33.5972C593.284 40.8093 590.266 55.5548 583.071 69.2733C575.213 84.2566 559.183 104.923 546.055 116.995C521.754 139.342 502.978 155.239 486.113 167.746C480.888 171.621 476.613 174.87 476.613 174.966C476.613 175.062 477.559 174.927 478.715 174.67C481.738 173.994 501.175 170.464 507.451 169.451C518.773 167.624 524.966 167.142 536.887 167.163C550.026 167.183 557.366 168.124 564.865 170.739C576.037 174.635 583.979 182.672 586.272 192.403C588.665 202.555 584.655 216.211 575.103 230.441C573.049 233.499 571.433 236.055 571.51 236.122C571.587 236.189 574.299 235.383 577.537 234.332C593.59 229.122 640.933 217.397 657.621 214.498C659.574 214.158 662.21 213.34 663.479 212.678C665.283 211.738 667.32 211.38 672.824 211.036C681.377 210.502 685.215 210.88 688.625 212.593C692.086 214.332 694.341 216.682 696.084 220.365C699.808 228.237 696.076 237.941 687.607 242.373C684.25 244.131 681.289 244.798 665.845 247.276C653.723 249.222 624.729 254.631 614.262 256.9C582.929 263.691 561.507 269.801 532.79 280.133L523.087 283.625L517.652 288.473C477.201 324.556 395.367 377.889 332.796 408.948C315.582 417.493 299.804 423.399 279.946 428.73C268.707 431.747 269.02 431.703 264.899 430.703ZM316.256 389.022C316.718 388.848 324.161 385.311 332.796 381.162C361.157 367.534 391.843 350.757 419.022 334.019C431.736 326.19 453.666 312.217 454.463 311.438C454.995 310.919 446.421 314.584 434.281 320.067C410 331.032 369.842 352.432 348.193 365.942C336.605 373.173 311.21 390.328 311.21 390.925C311.21 391.042 312.156 390.733 313.312 390.238C314.469 389.743 315.793 389.196 316.256 389.022ZM319.598 351.438C355.653 327.279 402.965 302.043 448.578 282.639C482.583 268.173 522.398 252.477 538.016 247.38C542.852 245.802 553.23 235.317 560.845 224.317C568.657 213.032 572.473 200.978 570.036 195.284C567.14 188.516 556.93 185.541 538.569 186.114C524.515 186.553 512.72 188.414 493.153 193.278C474.31 197.962 462.461 201.776 440.168 210.332C421.203 217.611 411.873 221.659 396.347 229.347L385.326 234.803L368.631 262.361C342.201 305.99 334.82 317.878 322.281 337.016C315.815 346.884 309.922 355.761 309.185 356.743C308.448 357.724 307.845 358.685 307.845 358.878C307.845 359.327 307.444 359.581 319.598 351.438ZM411.386 195.948C412.876 195.301 417.679 193.31 422.058 191.524C430.682 188.005 434.393 185.633 452.223 172.247C465.07 162.601 470.394 158.422 477.984 152.026C481.669 148.922 488.067 143.555 492.203 140.1C510.022 125.216 533.856 103.16 542.392 93.6575C560.102 73.9415 572.49 52.6889 572.49 42.0249C572.49 39.1259 571.574 37.9432 568.852 37.3293C559.342 35.1845 532.837 48.9752 510.254 67.8183C494.428 81.0232 472.237 102.629 458.905 117.815C440.389 138.904 440.806 138.304 425.029 166.608C409.616 194.259 408.058 197.124 408.432 197.124C408.567 197.124 409.896 196.595 411.386 195.948ZM49.3681 416.95C41.1052 414.428 35.5207 407.482 34.9397 399.005C33.9189 384.112 42.2879 360.189 56.1008 338.516C60.7729 331.186 73.0436 314.466 81.0684 304.496C96.3089 285.561 127.369 254.345 149.731 235.489C162.405 224.801 179.077 212.682 193.528 203.652L199.479 199.934L203.428 191.38C219.155 157.314 228.413 125.642 231.088 96.7609C231.942 87.5501 231.95 69.6804 231.103 63.6803C229.456 52.0064 225.687 41.0729 221.541 35.9412C214.995 27.8402 204.255 24.0284 186.456 23.4892C157.816 22.6216 125.832 31.3227 101.392 46.6308C78.003 61.2804 58.5857 84.05 41.9077 116.385C33.6839 132.329 32.988 133.905 30.5623 142.072C26.464 155.87 25.0255 166.36 25.4009 179.711C25.641 188.252 25.8763 190.223 27.1786 194.601C29.3433 201.879 30.6446 204.276 34.4841 208.058C40.0037 213.494 52.0041 218.673 62.6615 220.218C69.9929 221.281 86.4737 221.117 93.9424 219.907C111.492 217.064 133.366 208.99 140.17 202.845C142.649 200.606 144.892 195.442 144.575 192.706C144.15 189.042 135.963 187.959 112.725 188.495C96.6302 188.866 90.3105 188.466 86.9639 186.862C85.7855 186.297 85.5321 185.783 85.5321 183.957C85.5321 181.271 86.9434 180.324 90.9649 180.311C92.411 180.306 99.9803 179.435 107.786 178.374C129.327 175.445 135.783 174.933 141.321 175.717C154.157 177.532 162.329 185.675 163.037 197.358C163.589 206.446 161.102 213.068 154.535 219.999C143.016 232.157 117.446 242.724 91.2283 246.161C83.6047 247.16 67.2336 247.306 60.7622 246.433C51.617 245.199 41.23 241.866 31.9022 237.172C13.8267 228.076 3.54121 213.454 0.575471 192.638C-0.304415 186.462 -0.15051 170.959 0.867665 163.202C2.39801 151.543 6.13787 136.78 10.0662 126.891C11.9829 122.066 22.3199 102.518 27.4815 93.957C38.9077 75.0058 54.5912 55.4424 67.8543 43.5968C90.665 23.2239 122.058 8.34014 153.717 2.88852C184.054 -2.33561 207.919 -0.461505 224.064 8.41298C239.967 17.1542 248.537 29.877 253.738 52.466C260.811 83.1853 256.663 125.41 242.349 168.388C240.578 173.708 239.197 178.06 239.281 178.06C239.365 178.06 241.896 176.957 244.904 175.609C259.356 169.134 271.959 165.295 284.016 163.696C299.572 161.634 307.425 164.181 311.77 172.698C313.562 176.212 313.732 176.963 313.732 181.368C313.732 185.412 313.493 186.701 312.248 189.355C309.98 194.194 304.172 198.388 296.351 200.837C293.498 201.73 291.112 201.893 280.652 201.91L268.317 201.931L262.715 204.086C254.754 207.15 246.747 210.983 237.876 215.976C229.571 220.65 219.013 227.078 217.438 228.417C216.901 228.874 214.785 232.428 212.737 236.314C204.65 251.655 195.664 266.892 181.075 290.001C160.141 323.161 131.318 358.307 101.792 386.675C85.1199 402.694 70.7681 413.326 62.0944 416.083C57.6835 417.486 52.3198 417.852 49.3681 416.95ZM101.535 339.959C108.096 333.098 116.402 324.078 119.992 319.915C131.127 307.001 149.555 283.667 149.031 283.144C148.895 283.007 142.992 288.771 135.916 295.953C118.62 313.505 106.739 327.48 93.0831 346.333C89.4965 351.285 88.8007 352.435 89.3909 352.435C89.5085 352.435 94.9733 346.821 101.535 339.959Z"
        fill="rgba(0, 0, 0, 0.7)" />
</svg>